<svg width="33" height="33" viewBox="0 0 33 33" fill="none" xmlns="http://www.w3.org/2000/svg">
<path d="M12.4149 12.3916L9.49316 20.6079H11.3878L11.9691 18.7246H14.8909L15.4732 20.6079H17.4932L14.5492 12.3916H12.4149ZM12.3574 17.4698L13.4421 13.9658L14.5148 17.4698H12.3574Z" fill="white"/>
<path d="M29.5488 9.79739C29.2593 9.61717 28.9282 9.51459 28.5874 9.49953C28.2467 9.48448 27.9078 9.55747 27.6035 9.71145C27.5732 9.72614 27.5438 9.74277 27.5156 9.76125L24.501 11.6775V10.4995C24.4994 9.17391 23.9721 7.90304 23.0348 6.9657C22.0974 6.02836 20.8266 5.50107 19.501 5.49951H7.50098C6.17537 5.50107 4.90451 6.02836 3.96716 6.9657C3.02982 7.90304 2.50254 9.17391 2.50098 10.4995V22.4995C2.50254 23.8251 3.02982 25.096 3.96716 26.0333C4.90451 26.9707 6.17537 27.498 7.50098 27.4995H19.501C20.8266 27.498 22.0974 26.9707 23.0348 26.0333C23.9721 25.096 24.4994 23.8251 24.501 22.4995V21.3215L27.5156 23.2379C27.5444 23.2563 27.574 23.2732 27.6045 23.2886C27.9094 23.441 28.2482 23.5129 28.5887 23.4975C28.9292 23.4821 29.2601 23.3799 29.55 23.2007C29.8399 23.0214 30.0791 22.771 30.2451 22.4733C30.411 22.1756 30.4981 21.8404 30.498 21.4996V11.4996C30.4995 11.1582 30.413 10.8222 30.2467 10.524C30.0804 10.2258 29.8401 9.97556 29.5488 9.79739ZM22.501 22.4995C22.5001 23.2949 22.1838 24.0575 21.6213 24.6199C21.0589 25.1823 20.2964 25.4987 19.501 25.4995H7.50098C6.70559 25.4987 5.94304 25.1823 5.38062 24.6199C4.81819 24.0575 4.50184 23.2949 4.50098 22.4995V10.4995C4.50185 9.70415 4.8182 8.94159 5.38062 8.37917C5.94304 7.81675 6.70559 7.5004 7.50098 7.49953H19.501C20.2964 7.5004 21.0589 7.81675 21.6213 8.37917C22.1838 8.94159 22.5001 9.70415 22.501 10.4995V22.4995ZM24.501 18.9524V14.0467L28.498 11.5064L28.499 21.4937L24.501 18.9524Z" fill="white"/>
</svg>
