<svg width="33" height="33" viewBox="0 0 33 33" fill="none" xmlns="http://www.w3.org/2000/svg">
<path d="M9.5 14.5C10.6046 14.5 11.5 13.6046 11.5 12.5C11.5 11.3954 10.6046 10.5 9.5 10.5C8.39543 10.5 7.5 11.3954 7.5 12.5C7.5 13.6046 8.39543 14.5 9.5 14.5Z" fill="white"/>
<path d="M29.5498 9.79834C29.2604 9.61784 28.9294 9.51494 28.5887 9.49955C28.2479 9.48415 27.909 9.55679 27.6045 9.71045C27.574 9.72584 27.5444 9.74278 27.5156 9.76123L24.501 11.6775V10.5005C24.4994 9.17488 23.9721 7.90402 23.0348 6.96667C22.0974 6.02933 20.8266 5.50204 19.501 5.50049H7.50098C6.17537 5.50205 4.90451 6.02933 3.96716 6.96668C3.02982 7.90402 2.50254 9.17488 2.50098 10.5005V22.5005C2.50254 23.8261 3.02982 25.097 3.96716 26.0343C4.90451 26.9716 6.17537 27.4989 7.50098 27.5005H19.501C20.8266 27.4989 22.0974 26.9716 23.0348 26.0343C23.9721 25.097 24.4994 23.8261 24.501 22.5005V21.3215L27.5156 23.2377C27.5438 23.2562 27.5732 23.2729 27.6035 23.2876C27.9083 23.4403 28.2472 23.5126 28.5878 23.4975C28.9285 23.4823 29.2596 23.3803 29.5497 23.2011C29.8398 23.0219 30.0792 22.7715 30.2452 22.4736C30.4112 22.1758 30.4982 21.8404 30.498 21.4995V11.4995C30.4993 11.1584 30.4127 10.8227 30.2466 10.5248C30.0805 10.2269 29.8406 9.97668 29.5498 9.79834ZM22.501 22.5005C22.5001 23.2959 22.1838 24.0584 21.6213 24.6208C21.0589 25.1833 20.2964 25.4996 19.501 25.5005H7.50098C6.70559 25.4996 5.94304 25.1833 5.38062 24.6208C4.8182 24.0584 4.50185 23.2959 4.50098 22.5005V10.5005C4.50184 9.70511 4.81819 8.94255 5.38062 8.38013C5.94304 7.81771 6.70559 7.50136 7.50098 7.50049H19.501C20.2964 7.50136 21.0589 7.81771 21.6213 8.38013C22.1838 8.94255 22.5001 9.70511 22.501 10.5005V22.5005ZM24.501 18.9524V14.0466L28.498 11.5063L28.5 21.4936L24.501 18.9524Z" fill="white"/>
</svg>
