<svg width="320.39604" height="120" viewBox="0 0 320.39604 120" xmlns="http://www.w3.org/2000/svg" xmlns:xlink="http://www.w3.org/1999/xlink"><defs><path d="M22.758354 55.623453h-8.5434716V21.304146c0-4.0960189.0969472-7.34375.2908416-9.743193-.5574464.5816831-1.2421359 1.2239583-2.0540687 1.9268255-.8119327.7028671-3.5325134 2.9326526-8.161742 6.6893564L0 14.7602104l15.6327351-12.288057h7.1256189V55.623453z" id="a"/><path d="M38.0842512 32.9741646c0-20.7951733 8.4707612-31.1927599 25.4122835-31.1927599 2.6660478 0 4.9200701.2060128 6.7620668.6180384v7.1256188c-1.8419967-.5332096-3.974835-.7998144-6.3985149-.7998144-5.6956477 0-9.9734426 1.5269183-12.8333849 4.580755-2.8599422 3.0538366-4.4110973 7.9496699-4.6534653 14.6875h.4362624c1.1391295-1.9631807 2.7387582-3.4840398 4.7988861-4.5625774 2.0601279-1.0785375 4.4838078-1.6178063 7.2710396-1.6178063 4.8231229 0 8.5798267 1.4784447 11.2701114 4.4353342 2.6902846 2.9568894 4.035427 6.9680796 4.035427 12.0335705 0 5.5744637-1.5572143 9.9795019-4.671643 13.2151145-3.1144286 3.2356126-7.3619276 4.8534189-12.7424969 4.8534189-3.8051774 0-7.1135004-.9149391-9.924969-2.7448174-2.8114687-1.8298783-4.974603-4.4959262-6.4894029-7.9981436-1.5147999-3.5022174-2.2721999-7.7133612-2.2721999-12.6334313zm18.541151 16.3234839c2.9326527 0 5.1927341-.9452351 6.7802445-2.8357054 1.5875103-1.8904703 2.3812654-4.5928734 2.3812654-8.1072092 0-3.0538366-.7452815-5.4532797-2.2358446-7.1983292-1.4905632-1.7450495-3.7264078-2.6175743-6.7075341-2.6175743-1.8419967 0-3.5385726.393848-5.0897277 1.181544-1.5511551.7876959-2.7751135 1.8662335-3.671875 3.2356126-.8967616 1.3693791-1.3451423 2.7690543-1.3451423 4.1990254 0 3.4173886.9270575 6.2955084 2.7811726 8.6343595 1.8541151 2.3388511 4.2232622 3.5082766 7.1074412 3.5082766z" id="b"/><path d="M114.232395 29.0478032c0 9.2342203-1.484504 16.0932343-4.453512 20.5770421-2.969008 4.4838078-7.507348 6.7257116-13.6150216 6.7257116-5.9137789 0-10.3975866-2.3146142-13.4514233-6.9438428-3.0538366-4.6292285-4.5807549-11.4155322-4.5807549-20.3589109 0-9.3796411 1.4845039-16.2931879 4.4535117-20.7406405 2.9690079-4.4474525 7.49523-6.6711788 13.5786665-6.6711788 5.9380156 0 10.4339416 2.3267327 13.4877786 6.980198 3.053836 4.6534654 4.580755 11.4640058 4.580755 20.4316213zm-27.4481747 0c0 7.2468028.7452816 12.4213593 2.2358447 15.5236696 1.4905631 3.1023102 3.8718286 4.6534653 7.1437964 4.6534653s5.6653516-1.5753919 7.1801516-4.7261757c1.5148-3.1507839 2.2722-8.3011036 2.2722-15.4509592 0-7.1256188-.7574-12.2819977-2.2722-15.4691367-1.5148-3.1871391-3.9081838-4.7807086-7.1801516-4.7807086s-5.6532333 1.5632735-7.1437964 4.6898206c-1.4905631 3.126547-2.2358447 8.3132219-2.2358447 15.5600247z" id="c"/><path d="M155.188707 55.623453h-8.579827V30.8292079c0-3.0780734-.581683-5.3745101-1.74505-6.88931-1.163366-1.5147999-2.981126-2.2721999-5.453279-2.2721999-3.296205 0-5.713826 1.0724784-7.252862 3.217435-1.539037 2.1449567-2.308555 5.7138253-2.308555 10.7066059V55.623453h-8.543472V15.414604h6.689357l1.199721 5.2715037h.436262c1.114893-1.9147071 2.7327-3.3931518 4.853419-4.4353342 2.12072-1.0421823 4.453512-1.5632735 6.998376-1.5632735 6.180384 0 10.276403 2.1086015 12.288057 6.3258045h.581683c1.187603-1.9874175 2.859942-3.5385727 5.017017-4.6534654 2.157076-1.1148927 4.629229-1.6723391 7.416461-1.6723391 4.798886 0 8.295044 1.2118399 10.488474 3.6355198 2.193431 2.4236799 3.290146 6.1197917 3.290146 11.0883354V55.623453h-8.543472V30.8292079c0-3.0780734-.587742-5.3745101-1.763227-6.88931-1.175484-1.5147999-2.999304-2.2721999-5.471457-2.2721999-3.320441 0-5.750181 1.0361232-7.289217 3.1083695-1.539037 2.0722462-2.308555 5.2533261-2.308555 9.5432394V55.623453z" id="d"/><path d="M198.798948 55.623453h-8.543472V15.414604h8.543472v40.208849zm-9.052444-50.860922c0-1.5269184.418084-2.7024031 1.254254-3.5264543C191.836928.4120256 193.03059 0 194.581745 0c1.502682 0 2.672107.4120256 3.508277 1.2360767.836169.8240512 1.254254 1.999536 1.254254 3.5264542 0 1.454208-.418085 2.5993967-1.254254 3.4355663-.83617.8361695-2.005595 1.2542543-3.508277 1.2542543-1.551155 0-2.744817-.4180848-3.580987-1.2542544-.83617-.8361695-1.254254-1.9813582-1.254254-3.4355662z" id="e"/><path d="M244.154239 55.623453h-8.579827V30.9019183c0-3.1023102-.624097-5.4169245-1.872293-6.9438428-1.248195-1.5269183-3.229553-2.2903775-5.944074-2.2903775-3.611283 0-6.253095 1.0664192-7.925434 3.1992574-1.672339 2.1328383-2.508508 5.7077661-2.508508 10.7247835V55.623453h-8.543472V15.414604h6.689357l1.199721 5.2715037h.436263c1.211839-1.9147071 2.932652-3.3931518 5.162438-4.4353342 2.229785-1.0421823 4.701939-1.5632735 7.41646-1.5632735 9.646246 0 14.469369 4.9079517 14.469369 14.7238552V55.623453z" id="f"/></defs><g fill="none" fill-rule="evenodd"><path d="M283.762376 4c4.418278 0 8.418278 1.790861 11.313709 4.6862915C297.971515 11.581722 299.762376 15.581722 299.762376 20v80c0 4.418278-1.790861 8.418278-4.686291 11.313708C292.180654 114.209139 288.180654 116 283.762376 116H20c-4.418278 0-8.418278-1.790861-11.3137085-4.686292C5.790861 108.418278 4 104.418278 4 100V20c0-4.418278 1.790861-8.418278 4.6862915-11.3137085C11.581722 5.790861 15.581722 4 20 4z" stroke="#00EE3A" stroke-width="8"/><g fill-rule="nonzero"><g transform="translate(30.5987 33.30724)"><use fill="#FFF" xlink:href="#a"/><use fill="#00EE3A" xlink:href="#a"/></g><g transform="translate(30.5987 33.30724)"><use fill="#FFF" xlink:href="#b"/><use fill="#00EE3A" xlink:href="#b"/></g><g transform="translate(30.5987 33.30724)"><use fill="#FFF" xlink:href="#c"/><use fill="#00EE3A" xlink:href="#c"/></g><g transform="translate(30.5987 33.30724)"><use fill="#FFF" xlink:href="#d"/><use fill="#00EE3A" xlink:href="#d"/></g><g transform="translate(30.5987 33.30724)"><use fill="#FFF" xlink:href="#e"/><use fill="#00EE3A" xlink:href="#e"/></g><g transform="translate(30.5987 33.30724)"><use fill="#FFF" xlink:href="#f"/><use fill="#00EE3A" xlink:href="#f"/></g></g><path d="M301.544554 33.5049505h2.851486c8.836556 0 16 7.163444 16 16v20.2772277c0 8.836556-7.163444 16-16 16h-2.851486V33.5049505z" fill="#00EE3A"/></g></svg>