<svg xmlns="http://www.w3.org/2000/svg" width="464" height="108" fill="none"><path fill="#fff" d="M62.883 4.944c3.232 0 5.666.535 7.282 1.598a5.444 5.444 0 0 1 1.868 2.113c.428.858.622 1.813.565 2.77a5.32 5.32 0 0 1-.564 2.714 5.286 5.286 0 0 1-1.852 2.056c-1.633 1.054-4.075 1.607-7.3 1.607H51.706V28.57h9.587c3.267 0 5.709.527 7.308 1.581a5.34 5.34 0 0 1 1.85 2.08c.424.846.616 1.79.557 2.734a5.33 5.33 0 0 1-.552 2.732A5.299 5.299 0 0 1 68.6 39.77c-1.6 1.037-4.04 1.555-7.308 1.555h-9.587v11.338h11.521c3.302 0 5.744.519 7.334 1.573a5.99 5.99 0 0 1 1.756 2.115 6.023 6.023 0 0 1 0 5.362 5.991 5.991 0 0 1-1.756 2.115c-1.593 1.054-4.038 1.582-7.334 1.582H47.32c-3.542 0-5.967-.605-7.282-1.832-1.315-1.228-1.977-3.457-1.977-6.845v-42.11c0-3.682.699-6.217 2.097-7.605 1.399-1.389 3.84-2.08 7.326-2.074h15.398ZM75.27 58.015V31.158c0-3.284.585-5.718 1.754-7.303a6 6 0 0 1 2.36-1.863 6.505 6.505 0 0 1 3.04-.547 7.229 7.229 0 0 1 3.87 1.05 9.27 9.27 0 0 1 3.016 3.255 13.87 13.87 0 0 1 5.335-3.445 21.863 21.863 0 0 1 7.331-1.076c5.66 0 9.99 1.504 12.99 4.512 3 3.008 4.497 7.38 4.491 13.115v19.159c0 3.28-.594 5.726-1.781 7.32a6.92 6.92 0 0 1-2.417 1.77 7.417 7.417 0 0 1-3.002.63 7.426 7.426 0 0 1-3.003-.63 6.916 6.916 0 0 1-2.416-1.77c-1.188-1.594-1.782-4.04-1.782-7.32V42.911c0-3.73-.597-6.386-1.791-7.965-1.194-1.578-3.173-2.37-5.938-2.376-2.605 0-4.528.82-5.772 2.462-1.243 1.642-1.862 4.226-1.856 7.75v15.233c0 3.28-.593 5.726-1.781 7.32a6.893 6.893 0 0 1-2.412 1.769 7.4 7.4 0 0 1-2.998.63 7.401 7.401 0 0 1-2.998-.63 6.893 6.893 0 0 1-2.412-1.77c-1.243-1.593-1.828-4.038-1.828-7.319ZM129.628 33.19h-.481a8.243 8.243 0 0 1-5.392-1.604 5.162 5.162 0 0 1-1.488-1.92 5.476 5.476 0 0 1-.479-2.428 5.38 5.38 0 0 1 .465-2.443 5.07 5.07 0 0 1 1.502-1.922c1.299-1.028 3.268-1.622 5.907-1.782v-6.067c0-3.403.54-5.924 1.62-7.582a5.656 5.656 0 0 1 2.155-1.925 5.313 5.313 0 0 1 2.774-.56 5.24 5.24 0 0 1 2.745.565 5.58 5.58 0 0 1 2.124 1.92c1.063 1.658 1.595 4.179 1.595 7.582V21.1h1.131a9.838 9.838 0 0 1 6.042 1.63 5.14 5.14 0 0 1 1.62 1.936c.377.778.563 1.645.54 2.519a5.28 5.28 0 0 1-.485 2.517 4.957 4.957 0 0 1-1.599 1.937c-1.407 1.034-3.483 1.55-6.228 1.55h-1.055v24.473c0 3.421-.523 5.96-1.578 7.6a5.57 5.57 0 0 1-2.135 1.91 5.23 5.23 0 0 1-2.751.548 5.308 5.308 0 0 1-2.773-.56 5.651 5.651 0 0 1-2.156-1.925c-1.08-1.648-1.62-4.179-1.62-7.573V33.19ZM166.45 47.175a8.56 8.56 0 0 0 .999 3.343 8.776 8.776 0 0 0 2.26 2.697 11.644 11.644 0 0 0 7.344 2.166 21.318 21.318 0 0 0 8.806-2.228c3.232-1.486 5.22-2.237 5.973-2.237a5.696 5.696 0 0 1 2.179.343 5.594 5.594 0 0 1 1.87 1.142 5.123 5.123 0 0 1 1.193 1.755 5 5 0 0 1 .368 2.074c0 2.948-2.1 5.6-6.3 7.959a29.666 29.666 0 0 1-14.824 3.537 23.833 23.833 0 0 1-9.421-1.686 23.318 23.318 0 0 1-7.927-5.238c-4.642-4.616-6.96-10.408-6.954-17.376.006-6.969 2.26-12.805 6.763-17.51a22.12 22.12 0 0 1 7.64-5.283 22.641 22.641 0 0 1 9.2-1.729 22.295 22.295 0 0 1 8.887 1.607 21.804 21.804 0 0 1 7.453 4.981 22.192 22.192 0 0 1 4.959 7.403 21.733 21.733 0 0 1 1.605 8.7c0 2.07-.478 3.514-1.435 4.333-.956.82-2.796 1.23-5.519 1.23l-25.119.017Zm-.172-8.967h18.519a8.416 8.416 0 0 0-2.878-5.818 9.463 9.463 0 0 0-6.144-2.335 9.473 9.473 0 0 0-6.193 2.21 10.122 10.122 0 0 0-3.304 5.943ZM200.854 58V31.145c0-3.281.561-5.718 1.709-7.302a5.856 5.856 0 0 1 2.294-1.863 6.185 6.185 0 0 1 2.959-.548 6.86 6.86 0 0 1 3.77 1.05 9.28 9.28 0 0 1 2.902 3.255 15.72 15.72 0 0 1 4.583-3.375 11.463 11.463 0 0 1 4.892-1.137 7.198 7.198 0 0 1 2.71.478 6.925 6.925 0 0 1 2.298 1.45 6.305 6.305 0 0 1 1.578 2.13c.365.806.548 1.677.538 2.555 0 2.67-2.568 4.902-7.703 6.7-1.85.636-3.237 1.162-4.159 1.575a7.55 7.55 0 0 0-3.508 2.67c-.578.981-.904 2.746-.904 5.312v13.907c0 3.28-.578 5.726-1.727 7.319a5.918 5.918 0 0 1-2.314 1.86 6.245 6.245 0 0 1-2.975.542 6.166 6.166 0 0 1-2.958-.542 5.84 5.84 0 0 1-2.294-1.86c-1.13-1.593-1.691-4.038-1.691-7.32Z"/><path fill="#fff" d="M239.548 33.19h-.528a9.433 9.433 0 0 1-5.816-1.604 5.26 5.26 0 0 1-1.597-1.922 5.135 5.135 0 0 1-.514-2.426c-.04-.841.131-1.68.499-2.44a5.166 5.166 0 0 1 1.612-1.925c1.414-1.028 3.538-1.622 6.371-1.782v-6.067c0-3.403.582-5.924 1.747-7.582a5.965 5.965 0 0 1 2.325-1.925 6.108 6.108 0 0 1 2.99-.56c1.02-.065 2.04.13 2.96.565a5.876 5.876 0 0 1 2.291 1.92c1.147 1.658 1.72 4.179 1.72 7.582V21.1h1.22c2.28-.124 4.543.446 6.48 1.63a5.245 5.245 0 0 1 1.746 1.936c.408.778.608 1.644.583 2.519a4.955 4.955 0 0 1-.52 2.515 5.081 5.081 0 0 1-1.718 1.939c-1.493 1.033-3.723 1.55-6.689 1.55h-1.129v24.473c0 3.42-.564 5.96-1.702 7.6a5.886 5.886 0 0 1-2.303 1.91 6.028 6.028 0 0 1-2.966.548 6.112 6.112 0 0 1-2.992-.546 5.966 5.966 0 0 1-2.332-1.913c-1.165-1.648-1.748-4.178-1.748-7.572l.01-24.5ZM294.966 62.47a13.411 13.411 0 0 1-4.88 3.92 14.484 14.484 0 0 1-6.249 1.344 17.755 17.755 0 0 1-7.952-1.789 18.367 18.367 0 0 1-6.412-5.184c-3.879-4.65-5.821-10.457-5.827-17.421-.006-6.965 2.002-12.757 6.025-17.377a18.922 18.922 0 0 1 6.566-5.246 18.302 18.302 0 0 1 8.108-1.816 14.205 14.205 0 0 1 6.025 1.202 12.627 12.627 0 0 1 4.596 3.732 8.973 8.973 0 0 1 2.762-3.296 6.115 6.115 0 0 1 3.546-1.158 5.406 5.406 0 0 1 2.785.547 5.62 5.62 0 0 1 2.164 1.894c1.076 1.62 1.61 4.15 1.61 7.57v27.815c0 3.393-.543 5.923-1.627 7.57a5.615 5.615 0 0 1-2.148 1.917 5.395 5.395 0 0 1-2.784.568 5.988 5.988 0 0 1-3.743-1.158 8.791 8.791 0 0 1-2.565-3.633Zm-17.558-19.3a13.07 13.07 0 0 0 2.393 8.194 7.639 7.639 0 0 0 2.75 2.326 7.368 7.368 0 0 0 3.472.774 7.24 7.24 0 0 0 3.439-.799 7.52 7.52 0 0 0 2.698-2.345 13.052 13.052 0 0 0 2.393-8.15 12.535 12.535 0 0 0-2.41-7.962 7.6 7.6 0 0 0-2.705-2.296 7.33 7.33 0 0 0-3.415-.785 7.438 7.438 0 0 0-3.454.77 7.712 7.712 0 0 0-2.751 2.293 12.542 12.542 0 0 0-2.444 7.98h.034ZM314.837 8.3c0-2.124.866-4.16 2.408-5.662a8.328 8.328 0 0 1 5.811-2.345 7.834 7.834 0 0 1 3.093.593 7.668 7.668 0 0 1 2.587 1.756 7.988 7.988 0 0 1 2.353 5.645 7.988 7.988 0 0 1-2.353 5.644 7.745 7.745 0 0 1-2.607 1.733 7.906 7.906 0 0 1-3.1.572 8.263 8.263 0 0 1-3.154-.565 8.1 8.1 0 0 1-2.679-1.716 7.86 7.86 0 0 1-1.782-2.596 7.688 7.688 0 0 1-.604-3.068l.027.009Zm15.132 49.376c0 3.417-.567 5.952-1.708 7.59a5.851 5.851 0 0 1-2.288 1.901 6.026 6.026 0 0 1-2.954.554 6.156 6.156 0 0 1-3.011-.555 5.99 5.99 0 0 1-2.34-1.927c-1.169-1.646-1.753-4.173-1.753-7.563V29.901c0-3.393.575-5.907 1.726-7.544a6.007 6.007 0 0 1 2.352-1.936 6.185 6.185 0 0 1 3.026-.555 6.027 6.027 0 0 1 2.954.553 5.851 5.851 0 0 1 2.288 1.902c1.144 1.637 1.714 4.152 1.708 7.544v27.811ZM335.74 58.013V31.157c0-3.283.554-5.717 1.663-7.302a5.75 5.75 0 0 1 2.241-1.866 5.885 5.885 0 0 1 2.888-.545 6.587 6.587 0 0 1 3.669 1.05 9.197 9.197 0 0 1 2.824 3.256 13.02 13.02 0 0 1 5.05-3.445 19.744 19.744 0 0 1 6.951-1.076c5.367 0 9.472 1.504 12.317 4.512 2.845 3.008 4.264 7.38 4.258 13.114v19.158c0 3.28-.563 5.726-1.689 7.32a6.583 6.583 0 0 1-2.284 1.767 6.725 6.725 0 0 1-5.681.014 6.588 6.588 0 0 1-2.293-1.756c-1.127-1.593-1.681-4.038-1.681-7.319V42.91c0-3.73-.569-6.386-1.707-7.964-1.138-1.579-3.014-2.371-5.63-2.377-2.476 0-4.3.821-5.473 2.463-1.173 1.642-1.759 4.225-1.759 7.75v15.231c0 3.28-.564 5.726-1.69 7.32a6.565 6.565 0 0 1-2.286 1.769 6.71 6.71 0 0 1-5.686 0 6.565 6.565 0 0 1-2.286-1.77c-1.153-1.593-1.716-4.038-1.716-7.319ZM398.299 47.175a8.894 8.894 0 0 0 .949 3.343 8.69 8.69 0 0 0 2.147 2.697 10.69 10.69 0 0 0 6.977 2.166 19.454 19.454 0 0 0 8.392-2.21c3.07-1.486 4.958-2.238 5.674-2.238a5.165 5.165 0 0 1 2.049.343 5.262 5.262 0 0 1 1.763 1.125 5.136 5.136 0 0 1 1.133 1.755c.256.66.375 1.366.35 2.074 0 2.948-1.995 5.6-5.985 7.959a27.053 27.053 0 0 1-14.083 3.537c-3.064.08-6.11-.494-8.946-1.686a22.077 22.077 0 0 1-7.526-5.238c-4.41-4.616-6.615-10.408-6.615-17.376 0-6.969 2.142-12.805 6.425-17.51a21.06 21.06 0 0 1 7.259-5.281 20.58 20.58 0 0 1 8.739-1.73 20.248 20.248 0 0 1 8.443 1.605 20.68 20.68 0 0 1 7.08 4.982 22.287 22.287 0 0 1 4.711 7.403 22.75 22.75 0 0 1 1.525 8.7c0 2.07-.449 3.537-1.363 4.333-.914.796-2.656 1.23-5.243 1.23l-23.855.017Zm-.164-8.967h17.594a8.573 8.573 0 0 0-2.726-5.818 8.743 8.743 0 0 0-5.841-2.335 8.734 8.734 0 0 0-5.887 2.21 10.325 10.325 0 0 0-3.14 5.943ZM435.742 58.013V31.147c0-3.285.526-5.72 1.578-7.305a5.538 5.538 0 0 1 2.123-1.864 5.34 5.34 0 0 1 2.737-.547 6.018 6.018 0 0 1 3.482 1.05 9.083 9.083 0 0 1 2.681 3.256 14.54 14.54 0 0 1 4.233-3.376 9.902 9.902 0 0 1 4.518-1.137 6.196 6.196 0 0 1 2.5.479 6.352 6.352 0 0 1 2.118 1.45 6.298 6.298 0 0 1 1.443 2.12c.334.802.502 1.667.494 2.54 0 2.67-2.371 4.904-7.114 6.702-1.67.637-2.99 1.162-3.842 1.576a7.118 7.118 0 0 0-3.24 2.67c-.526.982-.835 2.748-.835 5.315v13.937c0 3.281-.534 5.727-1.603 7.321a6.29 6.29 0 0 1-2.17 1.77 6.097 6.097 0 0 1-2.698.631 6.094 6.094 0 0 1-2.698-.63 6.293 6.293 0 0 1-2.171-1.771c-1.01-1.594-1.536-4.04-1.536-7.322ZM9.036 60.597v2.434a6.847 6.847 0 0 1-.72 3.548 2.472 2.472 0 0 1-.94.884 2.321 2.321 0 0 1-1.236.267 2.37 2.37 0 0 1-1.258-.267 2.525 2.525 0 0 1-.963-.894 6.778 6.778 0 0 1-.728-3.538V51.518a6.846 6.846 0 0 1 .728-3.53c.238-.385.57-.698.96-.905.39-.207.825-.301 1.261-.273.429-.027.856.068 1.239.273.382.206.706.515.937.897.55 1.084.8 2.31.72 3.538v2.452h17.606a5.556 5.556 0 0 1 3.349.824c.342.307.617.688.806 1.118a3.414 3.414 0 0 1 0 2.744c-.189.43-.464.811-.806 1.118a5.556 5.556 0 0 1-3.35.823H9.037ZM11.487 39.171a5.221 5.221 0 0 1-1.492-1.9 6.601 6.601 0 0 1-.459-2.64 5.396 5.396 0 0 1 .441-2.585c.36-.826.92-1.576 1.645-2.202 1.397-1.087 3.426-1.631 6.088-1.631h8.866a6.846 6.846 0 0 1 3.39.654c.348.242.628.547.82.893.193.346.293.724.293 1.108 0 .383-.1.762-.293 1.108a2.685 2.685 0 0 1-.82.893c-1.03.499-2.21.726-3.39.654H19.58a7.625 7.625 0 0 0-3.687.662c-.38.259-.68.595-.871.978-.192.383-.27.8-.226 1.215-.032.403.053.806.247 1.175.195.367.493.688.868.933a7.239 7.239 0 0 0 3.597.685h7.068a6.832 6.832 0 0 1 3.39.662c.349.24.63.543.824.888.193.345.294.723.294 1.105 0 .383-.1.76-.294 1.106a2.667 2.667 0 0 1-.824.887 6.941 6.941 0 0 1-3.39.647H5.382a6.974 6.974 0 0 1-3.408-.647 2.661 2.661 0 0 1-.828-.886 2.248 2.248 0 0 1-.295-1.107c0-.383.1-.761.295-1.106.194-.345.477-.648.828-.887 1.03-.5 2.208-.73 3.39-.662h6.123ZM22.27 17.778c.5-.04.984-.177 1.425-.402.442-.224.83-.531 1.144-.903a4.401 4.401 0 0 0 .933-2.936 8.112 8.112 0 0 0-.959-3.515 8.646 8.646 0 0 1-.959-2.39 2.139 2.139 0 0 1 .144-.876 2.22 2.22 0 0 1 .49-.754c.214-.207.47-.37.753-.478.283-.108.586-.16.89-.15 1.268 0 2.41.84 3.425 2.52a11.277 11.277 0 0 1 1.524 5.929 8.9 8.9 0 0 1-.725 3.76 9.282 9.282 0 0 1-2.254 3.164 10.251 10.251 0 0 1-3.412 2.12c-1.275.48-2.64.71-4.01.677-2.782.08-5.485-.89-7.518-2.7a8.891 8.891 0 0 1-2.264-3.055 8.508 8.508 0 0 1-.741-3.673 8.356 8.356 0 0 1 .689-3.546 8.717 8.717 0 0 1 2.136-2.978 9.558 9.558 0 0 1 3.169-1.987 9.923 9.923 0 0 1 3.732-.647c.336-.036.676-.004.997.094.322.099.618.261.87.477.426.66.61 1.438.522 2.21v10.039Zm-3.844.073v-7.405c-.96.053-1.86.466-2.5 1.15a3.449 3.449 0 0 0-1.001 2.447c-.018.9.322 1.774.95 2.446a4.487 4.487 0 0 0 2.551 1.362ZM193.252 80.085h-2.164a5.912 5.912 0 0 1-3.151-.655 2.242 2.242 0 0 1-.79-.86 2.187 2.187 0 0 1-.242-1.133c-.026-.4.056-.799.239-1.157a2.28 2.28 0 0 1 .802-.881 5.818 5.818 0 0 1 3.142-.673h10.23a5.827 5.827 0 0 1 3.133.673c.343.219.622.522.806.88.185.358.269.757.244 1.158.021.392-.064.783-.247 1.133a2.24 2.24 0 0 1-.794.86 5.919 5.919 0 0 1-3.142.655H199.1v16.133a5.265 5.265 0 0 1-.724 3.065 2.888 2.888 0 0 1-.995.746 2.957 2.957 0 0 1-2.447 0 2.894 2.894 0 0 1-.994-.746 5.257 5.257 0 0 1-.724-3.065l.036-16.133ZM211.541 83.69a6.036 6.036 0 0 1 2.169-1.26 9.7 9.7 0 0 1 3.01-.39 8.1 8.1 0 0 1 2.952.373 7.31 7.31 0 0 1 2.514 1.393c1.274 1.178 1.911 2.895 1.911 5.152v7.515a4.6 4.6 0 0 1-.755 2.879c-.276.293-.624.53-1.018.692a3.325 3.325 0 0 1-1.261.246c-.436 0-.867-.084-1.261-.246a2.931 2.931 0 0 1-1.018-.692 4.547 4.547 0 0 1-.755-2.879v-5.931a4.965 4.965 0 0 0-.755-3.119 2.85 2.85 0 0 0-1.111-.742 3.258 3.258 0 0 0-1.383-.195 3.157 3.157 0 0 0-1.362.213c-.426.17-.795.43-1.074.757a4.733 4.733 0 0 0-.784 3.028v5.99a4.608 4.608 0 0 1-.745 2.878c-.258.311-.603.56-1.003.724-.399.164-.84.238-1.281.213a2.932 2.932 0 0 1-1.278-.211 2.53 2.53 0 0 1-.996-.726 4.61 4.61 0 0 1-.736-2.879V78.555a4.633 4.633 0 0 1 .736-2.895 2.899 2.899 0 0 1 1.015-.699c.395-.164.827-.249 1.264-.249.437 0 .869.085 1.263.25.395.163.742.402 1.016.698.566.873.825 1.871.745 2.87l-.019 5.16Z"/><path fill="#fff" d="M229.856 92.41c.039.445.175.879.4 1.274.224.395.532.743.906 1.025a4.843 4.843 0 0 0 2.94.827 8.778 8.778 0 0 0 3.554-.827 9.407 9.407 0 0 1 2.39-.827c.298-.01.595.034.875.132.279.098.534.247.751.438.206.19.367.417.474.667.107.25.157.52.148.789 0 1.102-.842 2.114-2.524 3.035a12.388 12.388 0 0 1-5.934 1.348 9.924 9.924 0 0 1-3.763-.642 9.367 9.367 0 0 1-3.167-1.996 9.014 9.014 0 0 1-2.122-3.043 8.512 8.512 0 0 1-.668-3.573c-.092-2.465.866-4.864 2.666-6.674a8.898 8.898 0 0 1 3.058-2.01 9.46 9.46 0 0 1 3.676-.66 9.28 9.28 0 0 1 3.542.598 8.762 8.762 0 0 1 2.979 1.882 8.432 8.432 0 0 1 2.003 2.811 7.937 7.937 0 0 1 .662 3.317c.035.298.001.6-.098.884-.1.285-.263.548-.479.77a3.665 3.665 0 0 1-2.204.471l-10.065-.016Zm-.071-3.416h7.409a3.139 3.139 0 0 0-1.146-2.216 3.9 3.9 0 0 0-2.46-.892 3.91 3.91 0 0 0-2.48.843 3.825 3.825 0 0 0-1.323 2.282v-.017ZM249.069 80.085h-2.164a5.92 5.92 0 0 1-3.153-.655 2.242 2.242 0 0 1-.79-.861 2.177 2.177 0 0 1-.242-1.133 2.233 2.233 0 0 1 .237-1.154c.182-.357.456-.662.795-.883a5.88 5.88 0 0 1 3.153-.674h10.235a5.832 5.832 0 0 1 3.134.674c.342.219.619.523.802.88.183.359.266.758.239 1.157.023.392-.06.783-.241 1.133-.182.35-.454.647-.791.86a5.923 5.923 0 0 1-3.143.656h-2.21v16.133a5.23 5.23 0 0 1-.734 3.065c-.271.317-.61.571-.993.746a2.95 2.95 0 0 1-2.444 0 2.887 2.887 0 0 1-.992-.746 5.266 5.266 0 0 1-.725-3.065l.027-16.133ZM259.003 90.978a8.81 8.81 0 0 1 .602-3.585 9.199 9.199 0 0 1 2.011-3.094c1.776-1.671 4.182-2.61 6.69-2.61s4.913.939 6.69 2.61c1.681 1.867 2.604 4.237 2.604 6.687s-.923 4.821-2.604 6.688a9.507 9.507 0 0 1-3.069 1.939 9.926 9.926 0 0 1-3.621.681 9.922 9.922 0 0 1-3.621-.681 9.507 9.507 0 0 1-3.069-1.94 9.237 9.237 0 0 1-2.014-3.101 8.832 8.832 0 0 1-.599-3.594Zm5.697-.066a4.85 4.85 0 0 0 1.001 3.208c.311.375.707.677 1.16.886a3.485 3.485 0 0 0 2.907 0 3.294 3.294 0 0 0 1.16-.886 4.902 4.902 0 0 0 1.01-3.208 4.688 4.688 0 0 0-1.036-3.134 3.26 3.26 0 0 0-1.157-.896 3.456 3.456 0 0 0-2.914 0 3.265 3.265 0 0 0-1.156.896 4.691 4.691 0 0 0-.941 3.134h-.034ZM290.599 83.803a3.946 3.946 0 0 1 1.09-1.603 2.458 2.458 0 0 1 1.574-.5c.388-.018.777.033 1.143.15.366.115.703.294.99.526.272.24.484.526.623.843.139.316.201.654.182.993a3.167 3.167 0 0 1-.132.835c-.099.338-.222.67-.37.993l-9.129 19.09a4.706 4.706 0 0 1-1.176 1.669c-.393.316-.91.483-1.441.468a3.336 3.336 0 0 1-1.164-.149 3.04 3.04 0 0 1-1.007-.536 2.492 2.492 0 0 1-.622-.857 2.236 2.236 0 0 1-.184-1.004c.003-.304.048-.607.133-.902.091-.315.215-.622.37-.918l2.474-4.7-6.058-12.42a2.816 2.816 0 0 1-.218-.642 4.337 4.337 0 0 1-.076-.835 2.257 2.257 0 0 1 .197-1.007c.144-.32.361-.611.638-.855.266-.244.588-.437.943-.566.356-.13.739-.193 1.123-.185a2.713 2.713 0 0 1 1.745.534 5.066 5.066 0 0 1 1.298 2.012l3.375 7.955 3.679-8.389ZM312.476 92.12a7.85 7.85 0 0 1-.573 3.244 7.453 7.453 0 0 1-1.841 2.664c-1.81 1.564-4.102 2.367-6.437 2.256a10.95 10.95 0 0 1-5.238-1.166c-1.457-.775-2.181-1.703-2.181-2.733a2.472 2.472 0 0 1 .166-.982c.12-.312.303-.592.534-.822a2.605 2.605 0 0 1 1.891-.681c.825.107 1.635.315 2.414.621 1.009.365 2.064.572 3.13.613a2.533 2.533 0 0 0 1.843-.715c.24-.222.43-.498.558-.807.128-.309.19-.644.182-.98a2.44 2.44 0 0 0-.179-1.016 2.321 2.321 0 0 0-.577-.832 9.588 9.588 0 0 0-3.219-1.498c-2.403-.76-4.082-1.657-5.037-2.69a5.819 5.819 0 0 1-1.117-1.945 6.047 6.047 0 0 1-.315-2.252 7.408 7.408 0 0 1 .562-3.04 7.046 7.046 0 0 1 1.739-2.493c1.681-1.482 3.825-2.247 6.011-2.145a8.77 8.77 0 0 1 4.49 1.03c1.175.681 1.762 1.532 1.762 2.554.014.314-.033.627-.14.92-.107.294-.27.56-.48.782a2.331 2.331 0 0 1-1.722.622 8.02 8.02 0 0 1-2.003-.426 8.047 8.047 0 0 0-2.092-.425 2.808 2.808 0 0 0-1.859.578c-.221.174-.4.402-.52.664a1.89 1.89 0 0 0-.172.843c0 .988 1.017 1.822 3.05 2.503l1.102.366a10.933 10.933 0 0 1 4.828 2.936 6.567 6.567 0 0 1 1.44 4.453ZM320.09 83.69a5.176 5.176 0 0 1 1.898-1.26 7.534 7.534 0 0 1 2.634-.39 6.244 6.244 0 0 1 4.782 1.766c1.115 1.178 1.672 2.895 1.672 5.152v7.515a5.05 5.05 0 0 1-.66 2.879 2.584 2.584 0 0 1-3.988 0 5.04 5.04 0 0 1-.652-2.879v-5.931a5.54 5.54 0 0 0-.669-3.119 2.527 2.527 0 0 0-2.182-.937 2.453 2.453 0 0 0-1.192.213c-.373.17-.696.43-.94.757a5.325 5.325 0 0 0-.686 3.028v5.99a5.116 5.116 0 0 1-.652 2.878 2.29 2.29 0 0 1-1.998.937 2.266 2.266 0 0 1-1.99-.937 5.13 5.13 0 0 1-.644-2.879V78.555a5.152 5.152 0 0 1 .644-2.895 2.56 2.56 0 0 1 1.994-.948 2.575 2.575 0 0 1 1.994.948c.495.873.722 1.871.652 2.87l-.017 5.16ZM335.748 90.978a8.811 8.811 0 0 1 .603-3.585 9.216 9.216 0 0 1 2.01-3.094c1.777-1.671 4.182-2.61 6.69-2.61s4.914.939 6.69 2.61c1.681 1.867 2.604 4.237 2.604 6.687s-.923 4.821-2.604 6.688a9.502 9.502 0 0 1-3.068 1.939 9.93 9.93 0 0 1-3.622.681 9.926 9.926 0 0 1-3.621-.681 9.507 9.507 0 0 1-3.069-1.94 9.236 9.236 0 0 1-2.012-3.101 8.832 8.832 0 0 1-.601-3.594Zm5.697-.066a4.854 4.854 0 0 0 1.01 3.208c.311.375.708.677 1.16.886a3.485 3.485 0 0 0 2.907 0 3.294 3.294 0 0 0 1.16-.886 4.892 4.892 0 0 0 1.002-3.208 4.689 4.689 0 0 0-1.028-3.134 3.192 3.192 0 0 0-1.153-.903 3.378 3.378 0 0 0-1.46-.314 3.33 3.33 0 0 0-1.463.305c-.454.21-.849.52-1.151.904a4.695 4.695 0 0 0-.984 3.142ZM362.284 103.395a4.973 4.973 0 0 1-.699 2.917c-.234.317-.551.57-.92.737a2.494 2.494 0 0 1-1.185.216 2.47 2.47 0 0 1-1.186-.212 2.32 2.32 0 0 1-.919-.741 4.977 4.977 0 0 1-.69-2.917V85.651a4.889 4.889 0 0 1 .69-2.892 2.33 2.33 0 0 1 .922-.73 2.482 2.482 0 0 1 1.183-.206 2.77 2.77 0 0 1 1.504.41c.484.334.88.769 1.159 1.27a5.541 5.541 0 0 1 2.034-1.354 6.911 6.911 0 0 1 2.574-.46 8.154 8.154 0 0 1 3.347.679 7.733 7.733 0 0 1 2.713 1.971c1.667 1.842 2.544 4.206 2.459 6.628.06 2.446-.837 4.827-2.521 6.686a7.675 7.675 0 0 1-2.699 2.04 8.12 8.12 0 0 1-3.369.727 6.836 6.836 0 0 1-2.345-.385 7.015 7.015 0 0 1-2.052-1.153v4.513Zm-.088-12.361a4.942 4.942 0 0 0 1.017 3.26c.314.381.717.69 1.177.903.46.213.965.323 1.477.323.512 0 1.017-.11 1.477-.323.46-.213.862-.522 1.177-.904a4.959 4.959 0 0 0 1.026-3.25 4.731 4.731 0 0 0-1.053-3.185 3.294 3.294 0 0 0-1.173-.915 3.502 3.502 0 0 0-2.962 0 3.3 3.3 0 0 0-1.172.915 4.768 4.768 0 0 0-.991 3.176ZM375.285 96.805a3.33 3.33 0 0 1 1.036-2.462 3.414 3.414 0 0 1 2.484-1.026 3.311 3.311 0 0 1 2.436 1.026 3.517 3.517 0 0 1 0 4.935 3.303 3.303 0 0 1-2.446 1.015 3.455 3.455 0 0 1-1.347-.252 3.456 3.456 0 0 1-1.909-1.891 3.464 3.464 0 0 1-.263-1.345h.009ZM384.589 90.988a8.57 8.57 0 0 1 .621-3.607 9.19 9.19 0 0 1 2.093-3.11 9.559 9.559 0 0 1 3.263-1.976 10.24 10.24 0 0 1 3.858-.599 9.954 9.954 0 0 1 4.623.936c.519.207.965.543 1.285.971.32.428.502.93.525 1.447a2.02 2.02 0 0 1-.163.859 2.27 2.27 0 0 1-1.293 1.212c-.293.108-.608.16-.924.149a7.686 7.686 0 0 1-1.81-.398 8.616 8.616 0 0 0-2.234-.397 3.83 3.83 0 0 0-1.586.302 3.51 3.51 0 0 0-1.273.915c-.768.913-1.156 2.046-1.095 3.197-.071 1.169.328 2.32 1.122 3.238.38.39.852.699 1.379.9a4.147 4.147 0 0 0 1.67.268 7.838 7.838 0 0 0 2.235-.39 7.78 7.78 0 0 1 1.691-.397c.299-.004.596.052.868.165.272.113.514.28.707.49.429.444.658 1.021.642 1.614 0 .96-.642 1.789-1.927 2.485a10.212 10.212 0 0 1-4.786 1.027 9.706 9.706 0 0 1-3.729-.61 9.024 9.024 0 0 1-3.12-1.966c-1.815-1.835-2.764-4.252-2.642-6.725ZM400.866 90.98a8.825 8.825 0 0 1 .602-3.585 9.217 9.217 0 0 1 2.011-3.093c1.774-1.673 4.178-2.613 6.686-2.613 2.507 0 4.911.94 6.685 2.613 1.686 1.864 2.613 4.235 2.613 6.686 0 2.451-.927 4.822-2.613 6.687a9.496 9.496 0 0 1-3.066 1.938 9.921 9.921 0 0 1-3.619.681 9.926 9.926 0 0 1-3.62-.68 9.496 9.496 0 0 1-3.066-1.94 9.223 9.223 0 0 1-2.013-3.101 8.846 8.846 0 0 1-.6-3.593Zm5.697-.066a4.848 4.848 0 0 0 1.01 3.208c.31.375.706.68 1.159.889a3.472 3.472 0 0 0 2.909 0c.453-.21.849-.514 1.159-.89a4.853 4.853 0 0 0 1.01-3.207 4.636 4.636 0 0 0-1.036-3.133 3.258 3.258 0 0 0-1.155-.9 3.45 3.45 0 0 0-2.917 0 3.25 3.25 0 0 0-1.155.9 4.695 4.695 0 0 0-1.019 3.133h.035ZM421.802 96.394V85.643a5.036 5.036 0 0 1 .71-2.971c.235-.323.555-.582.928-.753.373-.17.787-.247 1.201-.22a2.75 2.75 0 0 1 1.501.43c.503.356.914.813 1.204 1.338a5.385 5.385 0 0 1 1.985-1.337 6.99 6.99 0 0 1 2.551-.432 7.766 7.766 0 0 1 3.235.627 6.555 6.555 0 0 1 2.425 1.887 8.535 8.535 0 0 1 2.624-1.93 7.65 7.65 0 0 1 3.09-.584 6.231 6.231 0 0 1 2.589.41c.82.319 1.553.806 2.146 1.427 1.212 1.48 1.813 3.324 1.689 5.19v7.669a5.017 5.017 0 0 1-.701 2.937 2.414 2.414 0 0 1-.942.741c-.376.167-.79.242-1.205.216a2.509 2.509 0 0 1-1.199-.212 2.348 2.348 0 0 1-.93-.745 5.033 5.033 0 0 1-.683-2.937V90.34a5.86 5.86 0 0 0-.629-3.073 2.055 2.055 0 0 0-.831-.754 2.208 2.208 0 0 0-1.128-.228 2.562 2.562 0 0 0-1.215.21c-.38.169-.707.425-.95.747a5.309 5.309 0 0 0-.682 3.039v6.112a4.944 4.944 0 0 1-.71 2.937c-.26.3-.587.54-.957.706a2.906 2.906 0 0 1-2.372 0 2.754 2.754 0 0 1-.957-.706 4.998 4.998 0 0 1-.709-2.937V90.34a5.934 5.934 0 0 0-.611-3.09 2.05 2.05 0 0 0-.822-.739 2.2 2.2 0 0 0-1.11-.226 2.566 2.566 0 0 0-1.216.21 2.407 2.407 0 0 0-.949.747 5.317 5.317 0 0 0-.683 3.039v6.112a5.005 5.005 0 0 1-.709 2.937 2.411 2.411 0 0 1-.938.74 2.57 2.57 0 0 1-1.201.217 2.524 2.524 0 0 1-1.202-.214 2.373 2.373 0 0 1-.936-.743 5.017 5.017 0 0 1-.701-2.937Z"/></svg>