<?xml version="1.0" encoding="UTF-8"?>
<svg id="Layer_1" data-name="Layer 1" xmlns="http://www.w3.org/2000/svg" viewBox="0 0 690.26 183.01">
  <defs>
    <style>
      .cls-1 {
        fill: #f60c0c;
      }

      .cls-1, .cls-2, .cls-3, .cls-4, .cls-5, .cls-6 {
        stroke-width: 0px;
      }

      .cls-2 {
        fill: #fb0000;
      }

      .cls-3 {
        fill: #fb4100;
      }

      .cls-4 {
        fill: #ab8c00;
      }

      .cls-5 {
        fill: #fbcf00;
      }

      .cls-6 {
        fill: #fffcfd;
      }
    </style>
  </defs>
  <rect class="cls-5" width="183.01" height="183.01" rx="36.22" ry="36.22"/>
  <circle class="cls-4" cx="99.98" cy="91.5" r="51.07"/>
  <path class="cls-2" d="M109.6,75.55l-54.1-31.24c-12.28-7.09-27.63,1.77-27.63,15.95v62.47c0,14.18,15.35,23.04,27.63,15.95l54.1-31.24c12.28-7.09,12.28-24.82,0-31.91Z"/>
  <path class="cls-3" d="M109.6,75.55l-41.48-23.95c-11.71,9.36-19.21,23.75-19.21,39.9s7.51,30.54,19.21,39.9l41.48-23.95c12.28-7.09,12.28-24.82,0-31.91Z"/>
  <circle class="cls-6" cx="100.2" cy="91.5" r="18.61"/>
  <g>
    <path class="cls-1" d="M225.76,136.8h-12.4l3.42-7.98,37.05-85.49,1.57-3.42h7.41l1.57,3.42,37.05,85.49,3.42,7.98h-12.4l-1.57-3.42-31.77-73.38-31.77,73.38-1.57,3.42Z"/>
    <path class="cls-1" d="M324.79,68.55h11.54l-.14,5.7-.14,36.48c0,2.95.9,5.65,2.71,8.12,3.32,4.37,7.84,6.55,13.54,6.55,3.13,0,6.08-.81,8.83-2.42,4.84-2.94,7.27-7.03,7.27-12.25v-36.62l.14-5.56h11.54l-.14,5.7-.14,36.48c0,6.08-2,11.49-5.98,16.24-5.42,6.55-12.59,9.83-21.52,9.83-6.75,0-12.68-2.04-17.81-6.13-6.55-5.22-9.83-11.87-9.83-19.95v-36.62l.14-5.56Z"/>
    <path class="cls-1" d="M413.84,79.38c6.17-7.31,13.82-10.97,22.94-10.97,7.41,0,14.06,2.61,19.95,7.84v-2.14l.14-5.56h11.54l-.14,5.7-.14,56.85c0,3.04-.48,6.17-1.42,9.4-.95,3.23-2.35,6.36-4.2,9.4-1.85,3.04-4.01,5.77-6.48,8.19-2.47,2.42-5.37,4.37-8.69,5.84-3.33,1.47-6.79,2.21-10.4,2.21h-5.7v-11.4h5.7c5.13-.1,9.64-2.42,13.54-6.98,4.18-4.94,6.27-10.5,6.27-16.67v-2.14c-5.79,5.13-12.45,7.74-19.95,7.84-7.69,0-14.49-2.75-20.38-8.26-7.32-6.74-10.97-15.39-10.97-25.93,0-8.93,2.8-16.67,8.41-23.23ZM420.97,116.43c3.99,5.98,9.26,8.98,15.82,8.98,4.46,0,8.45-1.52,11.97-4.56,5.32-4.65,7.98-10.73,7.98-18.24,0-5.03-1.38-9.64-4.13-13.82-3.99-5.98-9.26-8.98-15.82-8.98-4.47,0-8.46,1.52-11.97,4.56-5.32,4.66-7.98,10.74-7.98,18.24,0,5.04,1.38,9.64,4.13,13.82Z"/>
    <path class="cls-1" d="M499.62,68.55h11.54l-.14,5.7-.14,36.48c0,2.95.9,5.65,2.71,8.12,3.32,4.37,7.84,6.55,13.54,6.55,3.13,0,6.08-.81,8.83-2.42,4.84-2.94,7.27-7.03,7.27-12.25v-36.62l.14-5.56h11.54l-.14,5.7-.14,36.48c0,6.08-2,11.49-5.98,16.24-5.42,6.55-12.59,9.83-21.52,9.83-6.75,0-12.68-2.04-17.81-6.13-6.55-5.22-9.83-11.87-9.83-19.95v-36.62l.14-5.56Z"/>
    <path class="cls-1" d="M619.73,88.22c0-1.42-.52-2.75-1.57-3.99-2.38-2.94-6.18-4.42-11.4-4.42-2,0-3.94.29-5.84.85-4.75,1.52-7.12,4.04-7.12,7.55,0,.76.29,1.52.86,2.28,1.33,1.62,5.7,3.56,13.11,5.84,4.75,1.42,8.26,2.61,10.54,3.56,10.07,4.09,15.05,9.78,14.96,17.1,0,3.8-1.42,7.41-4.27,10.83-5.13,5.98-12.54,8.98-22.23,8.98-6.84,0-12.78-1.66-17.81-4.99-5.79-3.99-8.69-8.93-8.69-14.82h11.4c0,1.42.57,2.76,1.71,3.99,2.66,2.95,7.12,4.42,13.39,4.42,2.18,0,4.37-.29,6.55-.86,5.7-1.42,8.55-3.94,8.55-7.55,0-.66-.24-1.38-.71-2.14-1.33-1.61-5.65-3.51-12.97-5.7-4.66-1.42-8.17-2.61-10.54-3.56-10.07-4.08-15.15-9.88-15.25-17.38,0-3.99,1.42-7.74,4.27-11.26,4.75-5.7,11.45-8.55,20.09-8.55,5.98,0,11.26,1.57,15.82,4.7,5.7,3.99,8.55,9.03,8.55,15.1h-11.4Z"/>
    <path class="cls-1" d="M674.16,116.71c.09,5.61,3.56,8.5,10.4,8.69h5.7v11.4h-5.7c-2.66,0-5.18-.29-7.55-.85-9.5-2.18-14.25-8.55-14.25-19.09v-37.05h-9.55v-11.4h9.55v-14.96l.14-5.56h11.54l-.14,5.7v14.82h15.96v11.4h-15.96l-.14,36.9Z"/>
  </g>
</svg>